<svg width="24" height="24" viewBox="0 0 24 24" fill="none" xmlns="http://www.w3.org/2000/svg">
<path d="M9.69592 13.2481C9.62392 13.2481 8.03992 13.2481 7.31992 13.2481C6.93592 13.2481 6.81592 13.1041 6.81592 12.7441C6.81592 11.7841 6.81592 10.8001 6.81592 9.84007C6.81592 9.45607 6.95992 9.33607 7.31992 9.33607H9.69592C9.69592 9.26407 9.69592 7.87207 9.69592 7.22407C9.69592 6.26407 9.86392 5.35207 10.3439 4.51207C10.8479 3.64807 11.5679 3.07207 12.4799 2.73607C13.0799 2.52007 13.6799 2.42407 14.3279 2.42407H16.6799C17.0159 2.42407 17.1599 2.56807 17.1599 2.90407V5.64007C17.1599 5.97607 17.0159 6.12007 16.6799 6.12007C16.0319 6.12007 15.3839 6.12007 14.7359 6.14407C14.0879 6.14407 13.7519 6.45607 13.7519 7.12807C13.7279 7.84807 13.7519 8.54407 13.7519 9.28807H16.5359C16.9199 9.28807 17.0639 9.43207 17.0639 9.81607V12.7201C17.0639 13.1041 16.9439 13.2241 16.5359 13.2241C15.6719 13.2241 13.8239 13.2241 13.7519 13.2241V21.0481C13.7519 21.4561 13.6319 21.6001 13.1999 21.6001C12.1919 21.6001 11.2079 21.6001 10.1999 21.6001C9.83992 21.6001 9.69592 21.4561 9.69592 21.0961C9.69592 18.5761 9.69592 13.3201 9.69592 13.2481Z" fill="white"/>
</svg>
