<svg width="80" height="80" viewBox="0 0 80 80" fill="none" xmlns="http://www.w3.org/2000/svg">
<path d="M75.3792 62.801C77.8705 59.6224 79.2415 55.6681 79.2415 51.616C79.2415 41.6044 71.0964 33.4592 61.0847 33.4592C59.2131 33.4592 57.3844 33.7405 55.6277 34.2947C55.5013 28.4952 55.2006 22.7034 54.7237 16.9426C54.5532 14.8963 54.9997 12.8999 56.0151 11.1692C57.395 8.81548 58.6308 5.60031 56.6801 3.6495C55.844 2.814 53.7005 1.60282 44.7774 0.73478C39.2076 0.193001 33.0915 0 29.2249 0C25.3583 0 19.2422 0.193001 13.6722 0.734936C4.74916 1.60297 2.6058 2.81415 1.76936 3.64997C-0.181132 5.60031 1.0546 8.81548 2.4347 11.1697C3.44991 12.9001 3.89644 14.8964 3.7258 16.9423C3.65964 17.7334 3.59411 18.5756 3.51998 19.5932C3.47274 20.2393 3.95837 20.8014 4.60447 20.8485C5.25073 20.8959 5.81269 20.4101 5.85976 19.764C5.93343 18.755 5.99818 17.9205 6.06371 17.1377C6.2747 14.6068 5.71947 12.1325 4.45839 9.98272C4.39427 9.87324 4.33421 9.7661 4.27446 9.65912C7.82574 8.16375 19.423 7.18858 29.225 7.18858C32.9559 7.18858 38.8762 7.37251 44.3029 7.88848C50.2959 8.45842 52.9767 9.16676 54.1719 9.66506C54.1132 9.77001 54.0544 9.87511 53.9914 9.98256C52.7302 12.1325 52.1748 14.6066 52.3856 17.137C53.6018 31.8292 53.6658 46.7252 52.5828 61.4322C50.066 61.4316 47.5487 61.4514 45.0447 61.4924C44.7233 57.5019 41.3732 54.3532 37.3014 54.3532C33.0178 54.3532 29.5328 57.8382 29.5328 62.1218C29.5328 63.9933 30.2029 65.7778 31.4033 67.1767C31.103 67.5266 30.836 67.9005 30.6044 68.294C23.5878 68.3455 16.4798 68.003 9.46689 67.2721C7.63338 67.0821 6.19368 65.6055 6.04354 63.7604C4.97405 50.7091 4.80999 37.4696 5.55587 24.4095C5.59278 23.7627 5.09839 23.2084 4.45167 23.1714C3.8051 23.1348 3.25065 23.6289 3.21358 24.2756C2.46144 37.4438 2.62692 50.7927 3.70516 63.951C3.94664 66.921 6.26814 69.2989 9.22431 69.6053C15.8589 70.2968 22.577 70.6462 29.2275 70.646C29.3844 70.646 29.541 70.6438 29.6978 70.6434C29.5901 71.1609 29.5327 71.6922 29.5327 72.2313C29.5327 76.5149 33.0176 79.9998 37.3012 79.9998C41.373 79.9998 44.7231 76.8513 45.0445 72.8607C49.9783 72.9417 54.9628 72.9417 59.8953 72.8607C60.2167 76.8511 63.567 79.9998 67.6388 79.9998C68.8888 79.9998 70.1328 79.6953 71.2362 79.119C71.8105 78.8192 72.0329 78.1105 71.7331 77.5362C71.433 76.9619 70.7243 76.7393 70.1503 77.0395C69.3697 77.447 68.5247 77.6538 67.6388 77.6538C64.6488 77.6538 62.2162 75.2213 62.2162 72.2313C62.2162 72.0956 62.2234 71.9476 62.2388 71.7656C62.2668 71.4346 62.1531 71.1073 61.926 70.8648C61.6989 70.6224 61.3799 70.4876 61.0475 70.494C55.3567 70.6027 49.5848 70.6027 43.8926 70.494C43.5622 70.4877 43.2414 70.6224 43.0141 70.8648C42.787 71.1073 42.6733 71.4346 42.7013 71.7656C42.7166 71.9464 42.7238 72.0945 42.7238 72.2313C42.7238 75.2213 40.2913 77.6538 37.3014 77.6538C34.3114 77.6538 31.8789 75.2213 31.8789 72.2313C31.8789 70.6255 32.5864 69.1105 33.8203 68.0748C34.0857 67.8519 34.2392 67.523 34.2392 67.1764C34.2392 66.8298 34.0859 66.5009 33.8203 66.278C32.5864 65.2423 31.8789 63.7274 31.8789 62.1214C31.8789 59.1315 34.3114 56.699 37.3014 56.699C40.2913 56.699 42.7238 59.1315 42.7238 62.1214C42.7238 62.2583 42.7166 62.4064 42.7013 62.5872C42.6733 62.9182 42.787 63.2455 43.0141 63.4879C43.2414 63.7304 43.5618 63.866 43.8926 63.8588C49.5846 63.7502 55.3565 63.7502 61.0475 63.8588C61.3802 63.866 61.6989 63.7304 61.926 63.4879C62.1531 63.2455 62.2668 62.9182 62.2388 62.5872C62.2234 62.4052 62.2162 62.2572 62.2162 62.1214C62.2162 59.1315 64.6488 56.699 67.6388 56.699C70.6295 56.699 73.0629 59.1315 73.0629 62.1214C73.0629 63.7277 72.355 65.2425 71.1203 66.2775C70.8546 66.5004 70.701 66.8295 70.701 67.1764C70.701 67.5233 70.8544 67.8524 71.1203 68.0752C72.355 69.1103 73.0629 70.6252 73.0629 72.2313C73.0629 72.9161 72.9371 73.5831 72.689 74.2137C72.4518 74.8167 72.7485 75.4975 73.3513 75.7347C73.9542 75.9718 74.6352 75.6753 74.8723 75.0725C75.2282 74.1673 75.4089 73.2115 75.4089 72.2315C75.4089 70.3596 74.7385 68.5751 73.5375 67.1765C74.5925 65.9485 75.2376 64.4223 75.3792 62.801ZM29.2252 4.84239C29.013 4.84239 9.65237 4.87617 3.32651 7.53674C3.00338 6.49478 3.02653 5.71073 3.42817 5.30909C3.74551 4.99191 5.43858 3.89302 13.8994 3.06987C19.3859 2.53623 25.4135 2.34604 29.2249 2.34604C33.0363 2.34604 39.0639 2.53623 44.5503 3.06987C53.0112 3.89302 54.7043 4.99191 55.0213 5.30878C55.4233 5.71073 55.4466 6.49462 55.1235 7.53658C48.7974 4.87632 29.4376 4.84239 29.2252 4.84239ZM67.6391 54.3531C63.5673 54.3531 60.217 57.5016 59.8956 61.4922C58.2467 61.4652 56.5913 61.4506 54.9345 61.4416C55.5331 53.2487 55.7802 44.9985 55.671 36.7567C57.4001 36.1251 59.2175 35.8053 61.0847 35.8053C69.8028 35.8053 76.8955 42.898 76.8955 51.616C76.8955 54.3243 76.1928 56.983 74.8857 59.324C73.7601 56.4192 70.9372 54.3531 67.6391 54.3531Z" fill="#3BB77E"/>
</svg>
