<svg width="74" height="80" viewBox="0 0 74 80" fill="none" xmlns="http://www.w3.org/2000/svg">
<path d="M71.188 68.7062C72.164 67.9488 72.6951 67.0141 72.6951 65.9922C72.6951 64.9705 72.1641 64.0358 71.188 63.2784C72.0423 62.6861 72.6221 62.0009 72.9198 61.2293C73.1793 60.5567 73.3448 59.4732 72.659 58.1308C72.1244 57.085 71.2779 56.4064 70.2105 56.1681C68.5006 55.7866 66.2365 56.5566 63.4679 58.4568C62.1602 54.8953 58.8292 52.3456 54.8374 52.1648C54 52.1268 53.1605 52.0971 52.32 52.0712C53.1275 38.1217 52.8714 23.9894 51.5556 10.0343C51.9887 9.33659 52.8175 7.79187 53.3377 5.48933C53.651 4.10336 53.0611 2.74005 51.8355 2.01613C50.6284 1.30346 49.1732 1.44253 48.1284 2.37067C47.6038 2.83662 47.1082 3.12537 46.2591 3.12537C45.1439 3.12537 44.6459 2.63708 43.8922 1.89801C43.0298 1.05221 41.9566 0 39.8843 0C37.812 0 36.7391 1.05221 35.8769 1.89769C35.1231 2.63677 34.6251 3.12506 33.5103 3.12506C32.3952 3.12506 31.8974 2.63677 31.1437 1.89769C30.2813 1.05221 29.2081 0 27.1359 0C25.0637 0 23.9907 1.05221 23.1287 1.89769C22.3749 2.63677 21.8769 3.12506 20.762 3.12506C19.6472 3.12506 19.1494 2.63677 18.3954 1.89769C17.5334 1.05221 16.4604 0 14.3882 0C12.3161 0 11.2433 1.05221 10.3812 1.89769C9.62735 2.63677 9.12955 3.12506 8.01505 3.12506C7.16625 3.12506 6.67062 2.83631 6.14624 2.37052C5.10184 1.44253 3.64713 1.30331 2.43976 2.01566C1.21395 2.73927 0.624263 4.10242 0.937393 5.48839C1.45771 7.79187 2.28694 9.3369 2.72008 10.0344C2.51742 12.1831 2.33554 14.3743 2.18132 16.5608C2.13569 17.2064 2.62211 17.7668 3.26774 17.8122C3.91635 17.8572 4.47371 17.3713 4.51933 16.7256C4.66293 14.6903 4.82949 12.6492 5.0159 10.6443C19.6997 8.87627 34.5764 8.87627 49.2609 10.6443C50.5364 24.3814 50.7745 38.2873 49.9757 52.0146C46.2713 51.9495 42.5531 51.9976 38.8704 52.1645C34.8786 52.3454 31.5476 54.895 30.2399 58.4565C27.4714 56.5563 25.207 55.7861 23.4972 56.1678C22.4299 56.4061 21.5833 57.0847 21.0488 58.1307C20.363 59.4729 20.5284 60.5563 20.7878 61.229C21.007 61.7973 21.3805 62.3181 21.9025 62.79C16.2949 62.6315 10.6272 62.2129 5.0159 61.5367C3.7776 48.2017 3.51306 34.6976 4.22995 21.3845C4.26479 20.7382 3.769 20.186 3.12274 20.1513C2.47257 20.1157 1.92444 20.6123 1.88944 21.2585C1.15692 34.861 1.44193 48.6594 2.73289 62.279C2.30319 62.9667 1.46271 64.5191 0.937863 66.8435C0.624103 68.2299 1.2138 69.5937 2.44007 70.3178C3.64697 71.0306 5.10231 70.8909 6.14624 69.9632C6.6714 69.4973 7.16735 69.2085 8.01535 69.2085C9.13055 69.2085 9.62865 69.6968 10.3826 70.4361C11.245 71.2816 12.3181 72.3336 14.3904 72.3336C16.4629 72.3336 17.536 71.2814 18.3984 70.4361C19.1522 69.6968 19.6505 69.2085 20.7655 69.2085C21.1435 69.2085 21.451 69.266 21.7196 69.3684C21.2927 69.7936 20.98 70.2561 20.7874 70.7554C20.528 71.4281 20.3625 72.5116 21.0483 73.8539C21.5828 74.8997 22.4294 75.5784 23.4968 75.8166C23.7809 75.8801 24.0801 75.9116 24.3946 75.9116C25.9726 75.9116 27.9309 75.1108 30.2389 73.5269C31.5463 77.089 34.8775 79.6391 38.8699 79.8198C41.5188 79.9398 44.1861 79.9998 46.8538 79.9998C49.5209 79.9998 52.1886 79.9398 54.8371 79.8198C58.8293 79.6389 62.1605 77.0889 63.4679 73.5267C65.7759 75.1108 67.7342 75.9115 69.3122 75.9115C69.6266 75.9115 69.9261 75.8798 70.21 75.8165C71.2774 75.5782 72.124 74.8996 72.6585 73.8536C73.3443 72.5114 73.1788 71.428 72.9193 70.7553C72.6221 69.9836 72.0423 69.2984 71.188 68.7062ZM4.45527 8.35282C4.09479 7.68468 3.57884 6.54466 3.22353 4.97197C3.09462 4.40118 3.50322 4.10961 3.63135 4.03399C3.78619 3.94258 4.18995 3.76773 4.5898 4.12289C5.29528 4.74947 6.32218 5.46886 8.01505 5.46886C10.0871 5.46886 11.16 4.41665 12.0222 3.57116C12.7758 2.83209 13.2738 2.3438 14.3883 2.3438C15.503 2.3438 16.0009 2.83209 16.7548 3.57116C17.6167 4.41665 18.6898 5.46886 20.762 5.46886C22.8343 5.46886 23.9074 4.41665 24.7695 3.57116C25.5232 2.83209 26.0212 2.3438 27.1359 2.3438C28.2508 2.3438 28.7488 2.83209 29.5025 3.57116C30.3649 4.41665 31.438 5.46886 33.5103 5.46886C35.5825 5.46886 36.6554 4.41665 37.5177 3.57116C38.2714 2.83209 38.7694 2.3438 39.8843 2.3438C40.9995 2.3438 41.4974 2.83209 42.2512 3.57116C43.1137 4.41665 44.1869 5.46886 46.2593 5.46886C47.952 5.46886 48.9792 4.74962 49.6849 4.12289C50.0843 3.76789 50.4889 3.94242 50.6439 4.03414C50.7722 4.10992 51.1809 4.40149 51.0517 4.97244C50.6964 6.5456 50.1801 7.68578 49.8206 8.35266C34.7645 6.517 19.5098 6.517 4.45527 8.35282ZM53.4352 77.5298C51.8573 77.5893 50.2745 77.6292 48.6896 77.6457C49.3903 72.505 50.6906 67.3152 52.5644 62.1986C52.7869 61.5907 52.4747 60.9178 51.8669 60.6951C51.2589 60.4726 50.5862 60.7849 50.3634 61.3926C48.3926 66.7746 47.0352 72.2395 46.3229 77.6531C44.7475 77.6482 43.1733 77.622 41.6028 77.5748C43.1911 66.0239 47.4277 57.1438 48.8909 54.3403C50.3654 54.3575 51.8381 54.395 53.3064 54.4493C52.9677 55.1414 52.5686 55.9905 52.1361 56.9786C51.8766 57.5714 52.1466 58.2625 52.7395 58.5221C52.8925 58.5891 53.0518 58.6208 53.2089 58.6208C53.6603 58.6208 54.0905 58.3585 54.283 57.9186C54.9005 56.5084 55.4444 55.3962 55.8324 54.6389C57.2204 54.9114 58.4622 55.57 59.444 56.4995C57.5824 60.6673 54.6693 68.3049 53.4352 77.5298ZM16.7579 68.7621C16.004 69.5012 15.5057 69.9896 14.3907 69.9896C13.2756 69.9896 12.7775 69.5014 12.0237 68.7623C11.1612 67.9168 10.0881 66.8646 8.01565 66.8646C6.32437 66.8646 5.29716 67.5835 4.59027 68.2106C4.19057 68.5656 3.78682 68.391 3.63213 68.2995C3.50369 68.2237 3.09493 67.932 3.22431 67.3602C3.60619 65.6688 4.17479 64.4767 4.53511 63.8361C10.0539 64.5072 15.6283 64.938 21.1502 65.1147C21.0603 65.3983 21.013 65.6914 21.013 65.9924C21.013 66.2964 21.0611 66.5927 21.153 66.879C21.0275 66.8705 20.8994 66.8647 20.7661 66.8647C18.6934 66.8646 17.6203 67.9168 16.7579 68.7621ZM24.0079 73.5291C23.749 73.4713 23.4157 73.3347 23.136 72.7874C22.8196 72.1678 22.8922 71.8123 22.9747 71.5989C23.2174 70.97 24.1024 70.3389 25.4668 69.8218C25.9265 69.6476 26.2287 69.2051 26.2236 68.7135C26.2184 68.222 25.907 67.7859 25.4437 67.6215C24.0098 67.1124 23.3568 66.4201 23.3568 65.9921C23.3568 65.5641 24.0099 64.8717 25.4437 64.3627C25.907 64.1983 26.2184 63.7622 26.2236 63.2706C26.2286 62.779 25.9265 62.3365 25.4668 62.1625C24.1024 61.6454 23.2174 61.0145 22.9747 60.3854C22.8924 60.172 22.8196 59.8165 23.136 59.1971C23.4157 58.6496 23.749 58.513 24.0079 58.4552C24.5599 58.3319 26.1898 58.348 29.6852 60.9396C29.6747 61.0571 29.6644 61.1746 29.6582 61.2934C29.4936 64.4111 29.4936 67.5727 29.6582 70.6904C29.6644 70.8092 29.6747 70.9267 29.6852 71.0442C26.1901 73.636 24.5607 73.6522 24.0079 73.5291ZM31.9985 61.4171C32.1973 57.6483 35.1973 54.6772 38.9765 54.5061C39.0152 54.5043 39.0543 54.5033 39.093 54.5014C37.485 57.8057 34.4825 64.7533 32.7981 73.5358C32.3371 72.641 32.0549 71.6364 31.9985 70.5675C31.8385 67.5316 31.8385 64.453 31.9985 61.4171ZM34.7567 75.911C36.4945 65.2297 40.4088 57.0166 41.7628 54.405C43.2622 54.3612 44.7652 54.3365 46.2689 54.3315C44.4192 58.0914 40.6995 66.6841 39.2494 77.4893C39.1585 77.4854 39.0674 77.4826 38.9765 77.4785C37.3796 77.4062 35.9228 76.8324 34.7567 75.911ZM61.7091 70.5673C61.5301 73.9633 59.076 76.7107 55.8274 77.3464C56.9388 69.4814 59.2881 62.8464 61.0378 58.7118C61.4224 59.539 61.6582 60.4515 61.7091 61.417C61.8691 64.453 61.8691 67.5315 61.7091 70.5673ZM70.5719 72.7872C70.2922 73.3347 69.9589 73.4713 69.7 73.5291C69.1477 73.6521 67.518 73.6361 64.0227 71.0447C64.0332 70.9272 64.0435 70.8095 64.0498 70.6908C64.2143 67.573 64.2143 64.4114 64.0498 61.2937C64.0435 61.1749 64.0332 61.0574 64.0227 60.9399C67.5176 58.3485 69.1472 58.3321 69.7 58.4555C69.9589 58.5133 70.2922 58.6499 70.5719 59.1971C70.8883 59.8166 70.8155 60.1721 70.733 60.3856C70.4904 61.0145 69.6053 61.6456 68.2409 62.1625C67.7813 62.3367 67.4792 62.7792 67.4842 63.2708C67.4894 63.7623 67.8008 64.1984 68.2641 64.3628C69.6981 64.8719 70.3511 65.5643 70.3511 65.9922C70.3511 66.4202 69.698 67.1126 68.2641 67.6216C67.8008 67.786 67.4894 68.2221 67.4842 68.7137C67.479 69.2053 67.7812 69.6478 68.2409 69.822C69.6053 70.3389 70.4904 70.97 70.7332 71.5991C70.8154 71.8123 70.8883 72.1678 70.5719 72.7872Z" fill="#3BB77E"/>
</svg>
