<svg width="80" height="76" viewBox="0 0 80 76" fill="none" xmlns="http://www.w3.org/2000/svg">
<path d="M74.0944 36.9178C71.7063 32.5531 69.3323 29.7326 68.4772 28.7777V22.3355L79.5713 13.226C79.8354 13.0089 79.9918 12.6875 79.9992 12.3456C80.0067 12.0037 79.8643 11.6758 79.6098 11.4476L71.2157 3.92389C70.7338 3.49199 69.9928 3.53262 69.5608 4.01436C69.1287 4.49625 69.1694 5.23722 69.6513 5.66927L77.0283 12.2814L68.4776 19.3025V14.5098C68.4776 13.8626 67.9531 13.3378 67.3057 13.3378C66.6583 13.3378 66.1338 13.8626 66.1338 14.5098L66.1332 28.2442C57.7655 29.5985 49.2967 29.5983 40.9291 28.2439V14.5098C40.9291 13.8626 40.4045 13.3378 39.7571 13.3378C39.1098 13.3378 38.5852 13.8626 38.5852 14.5098V19.3029L30.0339 12.2814L39.1566 4.10342C40.4987 2.89994 42.2319 2.39976 43.8998 2.5979C44.2432 4.07327 45.032 7.16792 46.2433 10.2509C48.2337 15.3168 50.5554 18.3454 53.1436 19.2521C53.2691 19.296 53.4 19.3181 53.531 19.3181C53.6619 19.3181 53.793 19.296 53.9183 19.2521C56.5065 18.3454 58.8283 15.3168 60.8192 10.251C62.0285 7.17386 62.8163 4.08733 63.1612 2.60837C64.1937 2.48492 65.26 2.62305 66.2513 3.04745C66.8468 3.3023 67.5353 3.02619 67.79 2.43133C68.0448 1.8363 67.7689 1.14753 67.174 0.892828C64.1634 -0.396132 60.6536 0.195928 58.2315 2.40054L57.15 3.38496C55.0866 5.26378 51.9761 5.26378 49.9135 3.38496L48.8322 2.40054C45.6389 -0.506442 40.8065 -0.524412 37.5919 2.35851L27.4523 11.4479C27.1976 11.6761 27.0554 12.0042 27.0629 12.3459C27.0702 12.6878 27.2266 13.0092 27.4907 13.2263L38.5849 22.3359V28.777C37.8166 29.6321 35.8421 31.967 33.7377 35.5475C31.9554 34.5977 30.0705 33.66 28.1612 32.7108C26.4927 31.8811 24.8122 31.0454 23.199 30.1968C24.7756 28.2225 25.9918 25.9877 26.5247 23.3678C27.3391 19.364 26.1478 15.7876 23.2563 13.5555C20.5151 11.4395 16.7401 10.9678 13.8624 12.3817C12.3198 13.1396 9.73206 15.1065 9.73206 19.7636C9.73206 22.7115 11.6042 25.4983 15.4557 28.2834C16.6604 29.1546 18.0149 29.9983 19.4565 30.8217C17.6692 32.5797 15.6181 34.1444 13.6803 35.6223C9.50846 38.8043 5.55033 41.8257 5.44798 45.8965C2.8957 46.5084 0.926404 48.6367 0.583578 51.3175C-0.195828 57.4208 -0.195828 63.6101 0.583578 69.7138C0.977343 72.7913 3.51572 75.1432 6.61959 75.3059C12.843 75.6304 19.1101 75.7926 25.3774 75.7926C31.6445 75.7926 37.9121 75.6303 44.1356 75.3059C47.2402 75.1431 49.7778 72.791 50.1697 69.7138C50.4032 67.889 50.5652 66.0565 50.6591 64.2209C51.6126 64.2495 52.574 64.2648 53.531 64.2648C68.83 64.2648 78.8116 60.6852 79.2291 60.5328C79.6915 60.3639 79.9992 59.9242 79.9992 59.432C79.9995 49.7438 76.7884 41.8413 74.0944 36.9178ZM48.3356 5.11721C51.297 7.8156 55.7651 7.8156 58.7283 5.11753L59.8096 4.13327C60.0293 3.93326 60.2617 3.75185 60.504 3.58903C60.097 5.14159 59.4726 7.27058 58.6383 9.3933C56.6848 14.3643 54.8404 16.227 53.5314 16.8756C52.2226 16.227 50.3782 14.3643 48.4251 9.3933C47.591 7.27027 46.9665 5.13987 46.5594 3.58668C46.8007 3.74966 47.0332 3.93154 47.2548 4.13311L48.3356 5.11721ZM12.0765 19.7629C12.0765 17.2163 13.0516 15.3911 14.8965 14.4846C15.6681 14.1055 16.5498 13.9216 17.4574 13.9216C18.974 13.9216 20.5622 14.4355 21.8247 15.4101C23.0924 16.3886 25.0903 18.6629 24.2286 22.8998C23.7562 25.2224 22.6005 27.2429 21.0923 29.0544C16.0273 26.216 12.0765 23.2026 12.0765 19.7629ZM6.74179 48.0667C8.83077 47.9583 10.9205 47.8676 12.9531 47.7973C13.6 47.7748 14.1061 47.2325 14.0836 46.5856C14.0611 45.9385 13.5228 45.4344 12.8719 45.4549C11.2143 45.5122 9.51877 45.5836 7.81683 45.6665C8.11871 42.8142 11.3829 40.322 15.1023 37.4854C17.2872 35.8187 19.6067 34.0496 21.6003 32.0009C23.3962 32.958 25.2713 33.8905 27.118 34.8088C28.9666 35.7281 30.8301 36.6549 32.5975 37.5979C31.4365 39.8037 30.2947 42.3707 29.3497 45.2627C25.4074 45.2188 21.4716 45.2358 17.5652 45.3216C16.918 45.3358 16.405 45.8718 16.4192 46.519C16.4334 47.1662 16.9667 47.6845 17.6164 47.6648C26.3527 47.4731 35.2341 47.6084 44.014 48.0667C45.9853 48.1689 47.5967 49.6605 47.8454 51.614C48.01 52.9002 48.1365 54.1904 48.2293 55.4828C48.1346 56.7797 48.006 58.0673 47.8454 59.3129C47.5968 61.2649 45.985 62.7557 44.0121 62.8581C41.3586 62.9967 38.6929 63.1046 36.0648 63.1835C36.1211 61.5286 36.0846 59.8669 35.952 58.2213C35.7728 55.9956 33.9672 54.2257 31.7524 54.1046C27.9603 53.8971 24.1148 53.8969 20.3236 54.1046C18.1086 54.2257 16.3032 55.9956 16.1239 58.2213C15.9903 59.8794 15.9542 61.554 16.0123 63.2215C12.9261 63.1393 9.81472 63.019 6.74179 62.8581C4.76952 62.7559 3.15758 61.265 2.90914 59.3125C2.75194 58.0815 2.62303 56.7981 2.5249 55.4968C2.61772 54.1998 2.74429 52.9049 2.90914 51.614C3.15883 49.6608 4.77077 48.1689 6.74179 48.0667ZM34.6599 38.7348C38.4565 40.9074 41.5241 43.1801 42.5549 45.651C38.9819 45.4804 35.3957 45.3621 31.8106 45.2978C32.6554 42.8513 33.6496 40.6517 34.6599 38.7348ZM33.6156 64.9977C33.53 66.0604 32.6739 66.9049 31.6243 66.9624C31.6242 66.9624 31.6242 66.9624 31.6242 66.9624C27.9173 67.1653 24.1586 67.1653 20.4514 66.9624C19.4018 66.9049 18.5457 66.0604 18.46 64.9977C18.2839 62.812 18.2839 60.5953 18.46 58.4096C18.5457 57.3469 19.4018 56.5023 20.4515 56.4448C22.3049 56.3434 24.1714 56.2927 26.0378 56.2927C27.9043 56.2927 29.7708 56.3434 31.6243 56.4448C32.6739 56.5023 33.53 57.3469 33.6156 58.4096C33.7917 60.5953 33.7917 62.812 33.6156 64.9977ZM44.0137 72.9647C31.6477 73.6094 19.108 73.6094 6.74257 72.9647C4.77124 72.8613 3.15883 71.3689 2.90914 69.4161C2.65069 67.392 2.48287 65.358 2.40162 63.3211C3.49322 64.4155 4.97719 65.1136 6.61991 65.1988C9.78581 65.3647 12.9931 65.4879 16.1721 65.5705C16.5158 67.6125 18.2379 69.1888 20.3234 69.3028C22.2194 69.4066 24.1287 69.4585 26.0378 69.4585C27.947 69.4585 29.8564 69.4066 31.7521 69.3028C33.8505 69.188 35.5804 67.5931 35.9092 65.5332C38.6272 65.4533 41.3874 65.3424 44.1337 65.1988C45.7774 65.1136 47.262 64.415 48.3537 63.3203C48.2723 65.3575 48.1042 67.392 47.8453 69.4166C47.5965 71.3692 45.985 72.8613 44.0137 72.9647ZM73.8094 59.6368C73.5683 56.1137 73.1228 52.6034 72.4806 49.1824C72.3612 48.5463 71.7493 48.1276 71.1126 48.2469C70.4765 48.3662 70.0575 48.9788 70.1771 49.6149C70.8238 53.0605 71.264 56.5999 71.4927 60.1501C70.5904 60.335 69.5672 60.527 68.4348 60.7139C68.2931 56.0009 67.7901 51.3081 66.9341 46.7445C66.8148 46.1083 66.2022 45.6897 65.5663 45.8086C64.9301 45.928 64.5112 46.5404 64.6306 47.1765C65.4811 51.7122 65.9747 56.3797 66.1008 61.0664C62.6065 61.546 58.3391 61.9207 53.5311 61.9207C52.6015 61.9207 51.6676 61.906 50.7413 61.8783C50.8076 58.3513 50.618 54.8203 50.17 51.3178C49.8186 48.5581 47.7428 46.3843 45.0808 45.8469C44.2204 42.2659 40.5437 39.3892 35.8046 36.6847C37.6777 33.5144 39.4301 31.3759 40.1953 30.4985C44.6217 31.2351 49.0767 31.6045 53.5317 31.6045C57.9864 31.6045 62.4411 31.2353 66.8674 30.4987C67.7468 31.5043 69.9236 34.1632 72.0764 38.1135C74.543 42.6396 77.4688 49.8136 77.6467 58.5893C76.8845 58.8298 75.5776 59.2146 73.8094 59.6368Z" fill="#3BB77E"/>
</svg>
